Coordinates
version=1
nRows=22
nColumns=24
inDegrees=yes

Units are S.I. units (second, meters, Newtons, ...)
Angles are in degrees.

endheader
time	pelvis_tilt	pelvis_list	pelvis_rotation	pelvis_tx	pelvis_ty	pelvis_tz	hip_flexion_r	hip_adduction_r	hip_rotation_r	knee_angle_r	ankle_angle_r	subtalar_angle_r	mtp_angle_r	hip_flexion_l	hip_adduction_l	hip_rotation_l	knee_angle_l	ankle_angle_l	subtalar_angle_l	mtp_angle_l	lumbar_extension	lumbar_bending	lumbar_rotation
      3.09000000	     63.39835775	     -3.55449904	      3.80501366	      0.65703770	      1.01566622	     -0.21743618	     -3.45561915	     -8.86728064	      4.13110542	    -49.78801566	    -29.38310717	     33.41574665	    104.05575984	     -5.22184530	    -13.79721060	      7.36981453	    -58.29477859	     13.32458405	     25.21921416	     25.74190363	      0.00000000	      0.00000000	      0.00000000
      3.10000000	     63.49466953	     -3.76242599	      3.65013138	      0.65671735	      1.01567429	     -0.21730090	     -3.15393376	     -9.15379433	      4.36610128	    -50.60019480	    -29.05048054	     33.19741166	    105.27655385	     -5.35906545	    -14.00566073	      7.34266429	    -58.34978849	     13.30342068	     25.23147242	     25.75597027	      0.00000000	      0.00000000	      0.00000000
      3.11000000	     63.66537028	     -3.97132140	      3.49293579	      0.65628130	      1.01562613	     -0.21710520	     -2.89047782	     -9.38590073	      4.68222924	    -51.28471970	    -28.70522757	     32.91318306	    106.29881124	     -5.55554113	    -14.21617570	      7.32707147	    -58.41556199	     13.28340060	     25.26095067	     25.77101164	      0.00000000	      0.00000000	      0.00000000
      3.12000000	     63.89414288	     -4.17230693	      3.34035282	      0.65575205	      1.01551539	     -0.21687382	     -2.66994653	     -9.57961913	      5.05282627	    -51.83997639	    -28.34322345	     32.53053432	    107.08397998	     -5.79566231	    -14.41795252	      7.32909206	    -58.48966434	     13.26172369	     25.30355992	     25.78721574	      0.00000000	      0.00000000	      0.00000000
      3.13000000	     64.16092120	     -4.35914481	      3.19763668	      0.65516119	      1.01536768	     -0.21663800	     -2.49436156	     -9.74947306	      5.45625976	    -52.26293689	    -27.95371822	     32.03160612	    107.60360336	     -6.06341104	    -14.60189662	      7.35156877	    -58.56824407	     13.23902863	     25.35288825	     25.80535520	      0.00000000	      0.00000000	      0.00000000
      3.14000000	     64.44523137	     -4.52806503	      3.06811107	      0.65454646	      1.01522113	     -0.21642384	     -2.36413266	     -9.90679100	      5.87791779	    -52.55024267	    -27.52357832	     31.41381403	    107.84173251	     -6.34300625	    -14.76145131	      7.39381931	    -58.64783419	     13.21852416	     25.40127284	     25.82665408	      0.00000000	      0.00000000	      0.00000000
      3.15000000	     64.72909191	     -4.67655881	      2.95312270	      0.65394551	      1.01510059	     -0.21624341	     -2.27891871	    -10.05860020	      6.30934475	    -52.69934490	    -27.04157798	     30.68834941	    107.79622587	     -6.61972280	    -14.89305199	      7.45202911	    -58.72578306	     13.20434479	     25.44091282	     25.85240264	      0.00000000	      0.00000000	      0.00000000
      3.16000000	     64.99867046	     -4.80233615	      2.85264512	      0.65338952	      1.01500929	     -0.21609548	     -2.23812600	    -10.20751585	      6.74581621	    -52.70961072	    -26.50198842	     29.87725791	    107.47891969	     -6.88117209	    -14.99602591	      7.52021218	    -58.79967762	     13.19957321	     25.46489412	     25.88338483	      0.00000000	      0.00000000	      0.00000000
      3.17000000	     65.24452755	     -4.90319247	      2.76638318	      0.65289834	      1.01494305	     -0.21597467	     -2.24115513	    -10.35284059	      7.18377317	    -52.58317999	    -25.90701491	     29.00984129	    106.91474595	     -7.11868076	    -15.07207358	      7.59148365	    -58.86644940	     13.20439950	     25.46806066	     25.91924458	      0.00000000	      0.00000000	      0.00000000
      3.18000000	     65.46098470	     -4.97764235	      2.69478324	      0.65248443	      1.01490666	     -0.21587461	     -2.28766976	    -10.49240838	      7.61915573	    -52.32536971	    -25.26793084	     28.11903896	    106.13994002	     -7.32789753	    -15.12449974	      7.65930183	    -58.92183539	     13.21487363	     25.44771377	     25.95795501	      0.00000000	      0.00000000	      0.00000000
      3.19000000	     65.64516158	     -5.02541675	      2.63927955	      0.65215907	      1.01490968	     -0.21578756	     -2.37803325	    -10.62407695	      8.04696884	    -51.94460654	    -24.60493247	     27.23824799	    105.19952251	     -7.50820517	    -15.15734925	      7.71840071	    -58.96074646	     13.22264644	     25.40414737	     25.99556030	      0.00000000	      0.00000000	      0.00000000
      3.20000000	     65.79621067	     -5.04729935	      2.60159598	      0.65193039	      1.01495300	     -0.21571022	     -2.51354114	    -10.74621888	      8.46182847	    -51.45197026	    -23.94576324	     26.39877292	    104.14425871	     -7.66134306	    -15.17467604	      7.76529513	    -58.97876239	     13.21598960	     25.34101226	     26.02632591	      0.00000000	      0.00000000	      0.00000000
      3.21000000	     65.91537335	     -5.04481323	      2.58283773	      0.65180187	      1.01502905	     -0.21564559	     -2.69573526	    -10.85755244	      8.85920204	    -50.86040315	    -23.32314859	     25.62785861	    103.02730579	     -7.79003357	    -15.18007304	      7.79833999	    -58.97434463	     13.18223805	     25.26545002	     26.04336416	      0.00000000	      0.00000000	      0.00000000
      3.22000000	     66.00665288	     -5.02027888	      2.58309960	      0.65177316	      1.01512702	     -0.21559353	     -2.92485522	    -10.95669403	      9.23691544	    -50.18388842	    -22.77118176	     24.94718292	    101.90077025	     -7.89720249	    -15.17631326	      7.81732789	    -58.95074023	     13.11156451	     25.18787187	     26.03970981	      0.00000000	      0.00000000	      0.00000000
      3.23000000	     66.07708779	     -4.97698309	      2.60138598	      0.65183414	      1.01522981	     -0.21555018	     -3.19834715	    -11.04139045	      9.59611498	    -49.43713383	    -22.32100658	     24.37176560	    100.81241771	     -7.98588489	    -15.16499031	      7.82270492	    -58.91625709	     13.00162969	     25.12123346	     26.00971572	      0.00000000	      0.00000000	      0.00000000
      3.24000000	     66.13591342	     -4.91918609	      2.63542442	      0.65196217	      1.01531988	     -0.21552119	     -3.51001222	    -11.10789514	      9.94096109	    -48.63603988	    -21.99637770	     23.90936886	     99.80279197	     -8.05968423	    -15.14648367	      7.81470965	    -58.88186005	     12.86218843	     25.07971286	     25.95053229	      0.00000000	      0.00000000	      0.00000000
      3.25000000	     66.19209324	     -4.85189826	      2.68132928	      0.65212983	      1.01539019	     -0.21552278	     -3.85005118	    -11.15125402	     10.27674548	    -47.79894440	    -21.80984360	     23.56053194	     98.90299752	     -8.12371342	    -15.12071329	      7.79280155	    -58.85594246	     12.71829628	     25.07683321	     25.86335287	      0.00000000	      0.00000000	      0.00000000
      3.26000000	     66.25058364	     -4.77986450	      2.73357653	      0.65231730	      1.01543916	     -0.21556697	     -4.20579135	    -11.16623440	     10.60674102	    -46.94813727	    -21.76030428	     23.31935227	     98.13335574	     -8.18569661	    -15.08861091	      7.75552259	    -58.83742218	     12.61053399	     25.12324477	     25.75408365	      0.00000000	      0.00000000	      0.00000000
      3.27000000	     66.30930962	     -4.70560528	      2.78617906	      0.65252340	      1.01546683	     -0.21564858	     -4.56226424	    -11.14804098	     10.92890998	    -46.11059750	    -21.83251815	     23.17499393	     97.50305212	     -8.25639419	    -15.05345171	      7.70067059	    -58.80962144	     12.59084470	     25.22454606	     25.63315787	      0.00000000	      0.00000000	      0.00000000
      3.28000000	     66.35909862	     -4.62827232	      2.83526649	      0.65275831	      1.01549291	     -0.21573302	     -4.90235757	    -11.09295959	     11.23394648	    -45.31713344	    -21.99879424	     23.11372616	     97.01076632	     -8.34831763	    -15.02087212	      7.62564240	    -58.73826708	     12.71330290	     25.37962469	     25.51436456	      0.00000000	      0.00000000	      0.00000000
      3.29000000	     66.38786532	     -4.54543921	      2.88178325	      0.65301608	      1.01557781	     -0.21576124	     -5.20701772	    -10.99965958	     11.50571593	    -44.59965546	    -22.22266250	     23.12115473	     96.64615243	     -8.47220980	    -14.99697501	      7.52805003	    -58.57679972	     13.02043540	     25.57996945	     25.41278107	      0.00000000	      0.00000000	      0.00000000
      3.30000000	     66.38789271	     -4.45724431	      2.93218168	      0.65326003	      1.01578799	     -0.21571175	     -5.45649053	    -10.87085130	     11.72425802	    -43.98688734	    -22.46389946	     23.18427767	     96.39194554	     -8.63209457	    -14.98511397	      7.40689678	    -58.28057332	     13.52743194	     25.81021440	     25.34214763	      0.00000000	      0.00000000	      0.00000000
